<mxfile host="app.diagrams.net" modified="2024-02-26T17:44:00.363Z" agent="Mozilla/5.0 (Windows NT 10.0; Win64; x64) AppleWebKit/537.36 (KHTML, like Gecko) Chrome/122.0.0.0 Safari/537.36 Edg/122.0.0.0" etag="Apl6OFzfXEDGj4_I3x3B" version="23.1.6" type="github">
  <diagram name="Página-1" id="bRA8RKCsJv3z7FLnGFfP">
    <mxGraphModel dx="918" dy="551" grid="1" gridSize="10" guides="1" tooltips="1" connect="1" arrows="1" fold="1" page="1" pageScale="1" pageWidth="827" pageHeight="1169" math="0" shadow="0">
      <root>
        <mxCell id="0" />
        <mxCell id="1" parent="0" />
        <mxCell id="cDw2JgXCBmMAKWbcmkBe-7" style="edgeStyle=none;curved=1;rounded=0;orthogonalLoop=1;jettySize=auto;html=1;exitX=0.5;exitY=0.5;exitDx=0;exitDy=0;exitPerimeter=0;entryX=0;entryY=0.5;entryDx=0;entryDy=0;fontSize=12;startSize=8;endSize=8;endArrow=none;endFill=0;" edge="1" parent="1" source="A_78D8oT7askTk93ZynL-3" target="A_78D8oT7askTk93ZynL-10">
          <mxGeometry relative="1" as="geometry" />
        </mxCell>
        <mxCell id="cDw2JgXCBmMAKWbcmkBe-33" style="edgeStyle=none;curved=1;rounded=0;orthogonalLoop=1;jettySize=auto;html=1;exitX=0;exitY=1;exitDx=0;exitDy=0;fontSize=12;startSize=8;endSize=8;dashed=1;endArrow=none;endFill=0;startArrow=classic;startFill=1;" edge="1" parent="1" source="A_78D8oT7askTk93ZynL-10" target="cDw2JgXCBmMAKWbcmkBe-29">
          <mxGeometry relative="1" as="geometry" />
        </mxCell>
        <mxCell id="A_78D8oT7askTk93ZynL-10" value="&lt;b&gt;Criar Projeto&lt;/b&gt;" style="ellipse;whiteSpace=wrap;html=1;fillColor=#6d8764;strokeColor=#330000;aspect=fixed;fontColor=#ffffff;" parent="1" vertex="1">
          <mxGeometry x="220" y="287.5" width="110" height="55" as="geometry" />
        </mxCell>
        <mxCell id="A_78D8oT7askTk93ZynL-16" value="&lt;b&gt;Criar&amp;nbsp;colunas&lt;/b&gt;" style="ellipse;whiteSpace=wrap;html=1;fillColor=#6d8764;strokeColor=#330000;fontColor=#ffffff;" parent="1" vertex="1">
          <mxGeometry x="325" y="185" width="110" height="55" as="geometry" />
        </mxCell>
        <mxCell id="A_78D8oT7askTk93ZynL-42" style="edgeStyle=none;curved=1;rounded=0;orthogonalLoop=1;jettySize=auto;html=1;fontSize=12;startSize=8;endSize=8;dashed=1;endArrow=classic;endFill=1;" parent="1" source="A_78D8oT7askTk93ZynL-18" target="A_78D8oT7askTk93ZynL-16" edge="1">
          <mxGeometry relative="1" as="geometry" />
        </mxCell>
        <mxCell id="A_78D8oT7askTk93ZynL-94" value="Extends" style="edgeLabel;html=1;align=center;verticalAlign=middle;resizable=0;points=[];fontSize=12;" parent="A_78D8oT7askTk93ZynL-42" vertex="1" connectable="0">
          <mxGeometry x="-0.2" relative="1" as="geometry">
            <mxPoint x="4" as="offset" />
          </mxGeometry>
        </mxCell>
        <mxCell id="cDw2JgXCBmMAKWbcmkBe-37" style="edgeStyle=none;curved=1;rounded=0;orthogonalLoop=1;jettySize=auto;html=1;exitX=1;exitY=1;exitDx=0;exitDy=0;entryX=0.184;entryY=0.159;entryDx=0;entryDy=0;fontSize=12;startSize=8;endSize=8;dashed=1;endArrow=none;endFill=0;entryPerimeter=0;startArrow=classic;startFill=1;" edge="1" parent="1" source="A_78D8oT7askTk93ZynL-18" target="cDw2JgXCBmMAKWbcmkBe-49">
          <mxGeometry relative="1" as="geometry">
            <mxPoint x="655.6207983471481" y="373.0082098738744" as="targetPoint" />
          </mxGeometry>
        </mxCell>
        <mxCell id="cDw2JgXCBmMAKWbcmkBe-38" style="edgeStyle=none;curved=1;rounded=0;orthogonalLoop=1;jettySize=auto;html=1;entryX=0;entryY=0.5;entryDx=0;entryDy=0;fontSize=12;startSize=8;endSize=8;dashed=1;endArrow=none;endFill=0;startArrow=classic;startFill=1;" edge="1" parent="1" source="A_78D8oT7askTk93ZynL-18" target="cDw2JgXCBmMAKWbcmkBe-26">
          <mxGeometry relative="1" as="geometry" />
        </mxCell>
        <mxCell id="cDw2JgXCBmMAKWbcmkBe-39" style="edgeStyle=none;curved=1;rounded=0;orthogonalLoop=1;jettySize=auto;html=1;exitX=0.704;exitY=0.027;exitDx=0;exitDy=0;entryX=0;entryY=1;entryDx=0;entryDy=0;fontSize=12;startSize=8;endSize=8;dashed=1;endArrow=none;endFill=0;exitPerimeter=0;startArrow=classic;startFill=1;" edge="1" parent="1" source="A_78D8oT7askTk93ZynL-18" target="cDw2JgXCBmMAKWbcmkBe-28">
          <mxGeometry relative="1" as="geometry" />
        </mxCell>
        <mxCell id="A_78D8oT7askTk93ZynL-18" value="&lt;b&gt;Criar Task&lt;/b&gt;" style="ellipse;whiteSpace=wrap;html=1;fillColor=#6d8764;strokeColor=#330000;fontColor=#ffffff;" parent="1" vertex="1">
          <mxGeometry x="435" y="287.5" width="110" height="55" as="geometry" />
        </mxCell>
        <mxCell id="A_78D8oT7askTk93ZynL-45" style="edgeStyle=none;curved=1;rounded=0;orthogonalLoop=1;jettySize=auto;html=1;fontSize=12;startSize=8;endSize=8;dashed=1;endArrow=classic;endFill=1;exitX=0;exitY=1;exitDx=0;exitDy=0;" parent="1" source="A_78D8oT7askTk93ZynL-16" target="A_78D8oT7askTk93ZynL-10" edge="1">
          <mxGeometry relative="1" as="geometry">
            <mxPoint x="709.5699999999999" y="372.5" as="sourcePoint" />
            <mxPoint x="709.5699999999999" y="307.5" as="targetPoint" />
          </mxGeometry>
        </mxCell>
        <mxCell id="A_78D8oT7askTk93ZynL-95" value="Extends" style="edgeLabel;html=1;align=center;verticalAlign=middle;resizable=0;points=[];fontSize=12;" parent="A_78D8oT7askTk93ZynL-45" vertex="1" connectable="0">
          <mxGeometry x="-0.1908" y="-1" relative="1" as="geometry">
            <mxPoint x="-10" y="9" as="offset" />
          </mxGeometry>
        </mxCell>
        <mxCell id="cDw2JgXCBmMAKWbcmkBe-15" style="edgeStyle=none;curved=1;rounded=0;orthogonalLoop=1;jettySize=auto;html=1;fontSize=12;startSize=8;endSize=8;dashed=1;" edge="1" parent="1" source="A_78D8oT7askTk93ZynL-86" target="A_78D8oT7askTk93ZynL-16">
          <mxGeometry relative="1" as="geometry" />
        </mxCell>
        <mxCell id="A_78D8oT7askTk93ZynL-86" value="&lt;font color=&quot;#ffffff&quot;&gt;Editar/Atualizar &lt;br&gt;Nome da Coluna&lt;/font&gt;" style="ellipse;whiteSpace=wrap;html=1;fillColor=#A39000;strokeColor=#330000;fontColor=#000000;" parent="1" vertex="1">
          <mxGeometry x="460" y="70" width="140" height="55" as="geometry" />
        </mxCell>
        <mxCell id="A_78D8oT7askTk93ZynL-115" value="&lt;b&gt;Coluna contém&lt;br&gt;&lt;/b&gt;&lt;br&gt;- id&lt;br&gt;- id_projeto&lt;br&gt;- titulo" style="shape=note;size=20;whiteSpace=wrap;html=1;fillColor=#fad7ac;strokeColor=#b46504;" parent="1" vertex="1">
          <mxGeometry x="190" y="910" width="120" height="117.5" as="geometry" />
        </mxCell>
        <mxCell id="Y-GGuCV96gfVqSrOxsrH-1" value="&lt;font color=&quot;#404040&quot;&gt;&lt;br&gt;&lt;b&gt;Task contém&amp;nbsp;&lt;br&gt;&lt;/b&gt;&lt;br&gt;- id&lt;br&gt;- id_projeto&lt;br&gt;- id_coluna&lt;br&gt;- titulo&lt;br&gt;- descrição&lt;br&gt;- data_criacao&lt;br&gt;- arquivado (bool)&lt;/font&gt;&lt;div&gt;&lt;br&gt;&lt;/div&gt;" style="shape=note;size=20;whiteSpace=wrap;html=1;fillColor=#fad7ac;strokeColor=#b46504;" parent="1" vertex="1">
          <mxGeometry x="350" y="910" width="140" height="170" as="geometry" />
        </mxCell>
        <mxCell id="Y-GGuCV96gfVqSrOxsrH-2" value="&lt;b&gt;TECH STACK&lt;br&gt;&lt;/b&gt;&lt;br&gt;ANGULAR 17&lt;br&gt;NEST JS&lt;br&gt;MONGODB" style="shape=note;size=20;whiteSpace=wrap;html=1;fillColor=#d5e8d4;strokeColor=#82b366;" parent="1" vertex="1">
          <mxGeometry x="656" y="792.5" width="120" height="117.5" as="geometry" />
        </mxCell>
        <mxCell id="Y-GGuCV96gfVqSrOxsrH-7" value="&lt;h3 style=&quot;text-align: center; box-sizing: border-box; margin-top: 24px; margin-bottom: 16px; font-size: 1.25em; font-weight: var(--base-text-weight-semibold, 600); line-height: 1.25; font-family: -apple-system, BlinkMacSystemFont, &amp;quot;Segoe UI&amp;quot;, &amp;quot;Noto Sans&amp;quot;, Helvetica, Arial, sans-serif, &amp;quot;Apple Color Emoji&amp;quot;, &amp;quot;Segoe UI Emoji&amp;quot;; font-style: normal; font-variant-ligatures: normal; font-variant-caps: normal; letter-spacing: normal; orphans: 2; text-indent: 0px; text-transform: none; widows: 2; word-spacing: 0px; -webkit-text-stroke-width: 0px; text-decoration-thickness: initial; text-decoration-style: initial; text-decoration-color: initial; background-color: rgb(34, 39, 46);&quot; dir=&quot;auto&quot; tabindex=&quot;-1&quot;&gt;Frontend&lt;/h3&gt;&lt;ul style=&quot;box-sizing: border-box; padding-left: 2em; margin-top: 0px; margin-bottom: 16px; font-family: -apple-system, BlinkMacSystemFont, &amp;quot;Segoe UI&amp;quot;, &amp;quot;Noto Sans&amp;quot;, Helvetica, Arial, sans-serif, &amp;quot;Apple Color Emoji&amp;quot;, &amp;quot;Segoe UI Emoji&amp;quot;; font-size: 16px; font-style: normal; font-variant-ligatures: normal; font-variant-caps: normal; font-weight: 400; letter-spacing: normal; orphans: 2; text-align: start; text-indent: 0px; text-transform: none; widows: 2; word-spacing: 0px; -webkit-text-stroke-width: 0px; text-decoration-thickness: initial; text-decoration-style: initial; text-decoration-color: initial; background-color: rgb(34, 39, 46);&quot; dir=&quot;auto&quot;&gt;&lt;li style=&quot;box-sizing: border-box;&quot;&gt;&lt;p style=&quot;box-sizing: border-box; margin-top: 16px; margin-bottom: 16px;&quot; dir=&quot;auto&quot;&gt;&lt;strong style=&quot;box-sizing: border-box; font-weight: var(--base-text-weight-semibold, 600);&quot;&gt;Gerenciamento de Colunas&lt;/strong&gt;&lt;/p&gt;&lt;ul style=&quot;box-sizing: border-box; padding-left: 2em; margin-top: 0px; margin-bottom: 0px;&quot; dir=&quot;auto&quot;&gt;&lt;li style=&quot;box-sizing: border-box;&quot;&gt;Permitir a criação de novas colunas.&lt;/li&gt;&lt;li style=&quot;box-sizing: border-box; margin-top: 0.25em;&quot;&gt;Possibilitar a edição do nome de uma coluna existente.&lt;/li&gt;&lt;/ul&gt;&lt;/li&gt;&lt;li style=&quot;box-sizing: border-box; margin-top: 0.25em;&quot;&gt;&lt;p style=&quot;box-sizing: border-box; margin-top: 16px; margin-bottom: 16px;&quot; dir=&quot;auto&quot;&gt;&lt;strong style=&quot;box-sizing: border-box; font-weight: var(--base-text-weight-semibold, 600);&quot;&gt;Gerenciamento de Tarefas&lt;/strong&gt;&lt;/p&gt;&lt;ul style=&quot;box-sizing: border-box; padding-left: 2em; margin-top: 0px; margin-bottom: 0px;&quot; dir=&quot;auto&quot;&gt;&lt;li style=&quot;box-sizing: border-box;&quot;&gt;Capacidade de adicionar novas tarefas a uma coluna.&lt;/li&gt;&lt;li style=&quot;box-sizing: border-box; margin-top: 0.25em;&quot;&gt;Permitir a edição do nome de uma tarefa existente.&lt;/li&gt;&lt;li style=&quot;box-sizing: border-box; margin-top: 0.25em;&quot;&gt;Opção para arquivar ou excluir uma tarefa.&lt;/li&gt;&lt;/ul&gt;&lt;/li&gt;&lt;li style=&quot;box-sizing: border-box; margin-top: 0.25em;&quot;&gt;&lt;p style=&quot;box-sizing: border-box; margin-top: 16px; margin-bottom: 16px;&quot; dir=&quot;auto&quot;&gt;&lt;strong style=&quot;box-sizing: border-box; font-weight: var(--base-text-weight-semibold, 600);&quot;&gt;Funcionalidades Essenciais&lt;/strong&gt;&lt;/p&gt;&lt;ul style=&quot;box-sizing: border-box; padding-left: 2em; margin-top: 0px; margin-bottom: 0px;&quot; dir=&quot;auto&quot;&gt;&lt;li style=&quot;box-sizing: border-box;&quot;&gt;Capacidade de mover uma tarefa de uma coluna para outra.&lt;/li&gt;&lt;li style=&quot;box-sizing: border-box; margin-top: 0.25em;&quot;&gt;Permitir a reordenação das colunas.&lt;/li&gt;&lt;li style=&quot;box-sizing: border-box; margin-top: 0.25em;&quot;&gt;Opção para filtrar tarefas por nome.&lt;/li&gt;&lt;/ul&gt;&lt;/li&gt;&lt;/ul&gt;" style="text;whiteSpace=wrap;html=1;fontColor=#FFFAFA;" parent="1" vertex="1">
          <mxGeometry x="40" y="410" width="350" height="480" as="geometry" />
        </mxCell>
        <mxCell id="Y-GGuCV96gfVqSrOxsrH-8" value="&lt;h3 style=&quot;text-align: center; box-sizing: border-box; margin-top: 24px; margin-bottom: 16px; font-size: 1.25em; font-weight: var(--base-text-weight-semibold, 600); line-height: 1.25; font-family: -apple-system, BlinkMacSystemFont, &amp;quot;Segoe UI&amp;quot;, &amp;quot;Noto Sans&amp;quot;, Helvetica, Arial, sans-serif, &amp;quot;Apple Color Emoji&amp;quot;, &amp;quot;Segoe UI Emoji&amp;quot;; font-style: normal; font-variant-ligatures: normal; font-variant-caps: normal; letter-spacing: normal; orphans: 2; text-indent: 0px; text-transform: none; widows: 2; word-spacing: 0px; -webkit-text-stroke-width: 0px; background-color: rgb(34, 39, 46); text-decoration-thickness: initial; text-decoration-style: initial; text-decoration-color: initial;&quot; dir=&quot;auto&quot; tabindex=&quot;-1&quot;&gt;Backend&lt;/h3&gt;&lt;ul style=&quot;box-sizing: border-box; padding-left: 2em; margin-top: 0px; margin-bottom: 16px; font-family: -apple-system, BlinkMacSystemFont, &amp;quot;Segoe UI&amp;quot;, &amp;quot;Noto Sans&amp;quot;, Helvetica, Arial, sans-serif, &amp;quot;Apple Color Emoji&amp;quot;, &amp;quot;Segoe UI Emoji&amp;quot;; font-size: 16px; font-style: normal; font-variant-ligatures: normal; font-variant-caps: normal; font-weight: 400; letter-spacing: normal; orphans: 2; text-align: start; text-indent: 0px; text-transform: none; widows: 2; word-spacing: 0px; -webkit-text-stroke-width: 0px; background-color: rgb(34, 39, 46); text-decoration-thickness: initial; text-decoration-style: initial; text-decoration-color: initial;&quot; dir=&quot;auto&quot;&gt;&lt;li style=&quot;box-sizing: border-box;&quot;&gt;&lt;p style=&quot;box-sizing: border-box; margin-top: 16px; margin-bottom: 16px;&quot; dir=&quot;auto&quot;&gt;&lt;strong style=&quot;box-sizing: border-box; font-weight: var(--base-text-weight-semibold, 600);&quot;&gt;Persistência de Dados&lt;/strong&gt;&lt;/p&gt;&lt;ul style=&quot;box-sizing: border-box; padding-left: 2em; margin-top: 0px; margin-bottom: 0px;&quot; dir=&quot;auto&quot;&gt;&lt;li style=&quot;box-sizing: border-box;&quot;&gt;Preparar o backend para persistir as alterações feitas no frontend.&lt;/li&gt;&lt;/ul&gt;&lt;/li&gt;&lt;li style=&quot;box-sizing: border-box; margin-top: 0.25em;&quot;&gt;&lt;p style=&quot;box-sizing: border-box; margin-top: 16px; margin-bottom: 16px;&quot; dir=&quot;auto&quot;&gt;&lt;strong style=&quot;box-sizing: border-box; font-weight: var(--base-text-weight-semibold, 600);&quot;&gt;Operações CRUD&lt;/strong&gt;&lt;/p&gt;&lt;ul style=&quot;box-sizing: border-box; padding-left: 2em; margin-top: 0px; margin-bottom: 0px;&quot; dir=&quot;auto&quot;&gt;&lt;li style=&quot;box-sizing: border-box;&quot;&gt;Implementar operações CRUD (Create, Read, Update, Delete) para manipulação das tarefas.&lt;/li&gt;&lt;/ul&gt;&lt;/li&gt;&lt;li style=&quot;box-sizing: border-box; margin-top: 0.25em;&quot;&gt;&lt;p style=&quot;box-sizing: border-box; margin-top: 16px; margin-bottom: 16px;&quot; dir=&quot;auto&quot;&gt;&lt;strong style=&quot;box-sizing: border-box; font-weight: var(--base-text-weight-semibold, 600);&quot;&gt;Comunicação Frontend-Backend&lt;/strong&gt;&lt;/p&gt;&lt;ul style=&quot;box-sizing: border-box; padding-left: 2em; margin-top: 0px; margin-bottom: 0px;&quot; dir=&quot;auto&quot;&gt;&lt;li style=&quot;box-sizing: border-box;&quot;&gt;Permitir que o frontend se comunique com o backend para realizar operações necessárias.&lt;/li&gt;&lt;/ul&gt;&lt;/li&gt;&lt;/ul&gt;" style="text;whiteSpace=wrap;html=1;fontColor=#FFFFFF;" parent="1" vertex="1">
          <mxGeometry x="430" y="410" width="346" height="360" as="geometry" />
        </mxCell>
        <mxCell id="UAzr31Xlrt7w5r0wW-kr-1" value="&lt;b&gt;Projeto contém&lt;br&gt;&lt;br&gt;- i&lt;/b&gt;d&lt;br&gt;&lt;b&gt;- &lt;/b&gt;titulo" style="shape=note;size=20;whiteSpace=wrap;html=1;fillColor=#fad7ac;strokeColor=#b46504;" parent="1" vertex="1">
          <mxGeometry x="25" y="910" width="120" height="117.5" as="geometry" />
        </mxCell>
        <mxCell id="cDw2JgXCBmMAKWbcmkBe-8" style="edgeStyle=none;curved=1;rounded=0;orthogonalLoop=1;jettySize=auto;html=1;fontSize=12;startSize=8;endSize=8;endArrow=none;endFill=0;" edge="1" parent="1" source="A_78D8oT7askTk93ZynL-3">
          <mxGeometry relative="1" as="geometry">
            <mxPoint x="380" y="325" as="targetPoint" />
          </mxGeometry>
        </mxCell>
        <mxCell id="cDw2JgXCBmMAKWbcmkBe-9" style="edgeStyle=none;curved=1;rounded=0;orthogonalLoop=1;jettySize=auto;html=1;entryX=0.5;entryY=0.5;entryDx=0;entryDy=0;entryPerimeter=0;fontSize=12;startSize=8;endSize=8;endArrow=none;endFill=0;" edge="1" parent="1" source="A_78D8oT7askTk93ZynL-18" target="A_78D8oT7askTk93ZynL-3">
          <mxGeometry relative="1" as="geometry" />
        </mxCell>
        <mxCell id="cDw2JgXCBmMAKWbcmkBe-16" style="edgeStyle=none;curved=1;rounded=0;orthogonalLoop=1;jettySize=auto;html=1;exitX=1;exitY=1;exitDx=0;exitDy=0;entryX=0;entryY=0;entryDx=0;entryDy=0;fontSize=12;startSize=8;endSize=8;dashed=1;" edge="1" parent="1" source="cDw2JgXCBmMAKWbcmkBe-10" target="A_78D8oT7askTk93ZynL-16">
          <mxGeometry relative="1" as="geometry" />
        </mxCell>
        <mxCell id="cDw2JgXCBmMAKWbcmkBe-10" value="&lt;font color=&quot;#ffffff&quot;&gt;Remover Coluna&lt;/font&gt;" style="ellipse;whiteSpace=wrap;html=1;fillColor=#A30F0F;strokeColor=#330000;fontColor=#000000;" vertex="1" parent="1">
          <mxGeometry x="160" y="70" width="140" height="55" as="geometry" />
        </mxCell>
        <mxCell id="cDw2JgXCBmMAKWbcmkBe-14" style="edgeStyle=none;curved=1;rounded=0;orthogonalLoop=1;jettySize=auto;html=1;entryX=0.5;entryY=0;entryDx=0;entryDy=0;fontSize=12;startSize=8;endSize=8;dashed=1;" edge="1" parent="1" source="cDw2JgXCBmMAKWbcmkBe-12" target="A_78D8oT7askTk93ZynL-16">
          <mxGeometry relative="1" as="geometry" />
        </mxCell>
        <mxCell id="cDw2JgXCBmMAKWbcmkBe-12" value="&lt;font color=&quot;#ffffff&quot;&gt;Reodernar Colunas&lt;/font&gt;" style="ellipse;whiteSpace=wrap;html=1;fillColor=#2E2AA3;strokeColor=#330000;fontColor=#000000;" vertex="1" parent="1">
          <mxGeometry x="310" y="70" width="140" height="55" as="geometry" />
        </mxCell>
        <mxCell id="cDw2JgXCBmMAKWbcmkBe-22" value="" style="edgeStyle=none;curved=1;rounded=0;orthogonalLoop=1;jettySize=auto;html=1;fontSize=12;startSize=8;endSize=8;endArrow=none;endFill=0;" edge="1" parent="1" source="A_78D8oT7askTk93ZynL-16" target="A_78D8oT7askTk93ZynL-3">
          <mxGeometry relative="1" as="geometry">
            <mxPoint x="380" y="240" as="sourcePoint" />
            <mxPoint x="380" y="325" as="targetPoint" />
          </mxGeometry>
        </mxCell>
        <mxCell id="A_78D8oT7askTk93ZynL-3" value="Usuário" style="shape=umlActor;verticalLabelPosition=bottom;verticalAlign=top;html=1;" parent="1" vertex="1">
          <mxGeometry x="365" y="285" width="30" height="60" as="geometry" />
        </mxCell>
        <mxCell id="cDw2JgXCBmMAKWbcmkBe-26" value="&lt;font color=&quot;#ffffff&quot;&gt;Mover Tasks&lt;/font&gt;" style="ellipse;whiteSpace=wrap;html=1;fillColor=#2E2AA3;strokeColor=#330000;fontColor=#000000;" vertex="1" parent="1">
          <mxGeometry x="580" y="290" width="140" height="55" as="geometry" />
        </mxCell>
        <mxCell id="cDw2JgXCBmMAKWbcmkBe-28" value="&lt;font color=&quot;#ffffff&quot;&gt;Remover Task&lt;/font&gt;" style="ellipse;whiteSpace=wrap;html=1;fillColor=#A30F0F;strokeColor=#330000;fontColor=#000000;" vertex="1" parent="1">
          <mxGeometry x="580" y="150" width="140" height="55" as="geometry" />
        </mxCell>
        <mxCell id="cDw2JgXCBmMAKWbcmkBe-29" value="&lt;font color=&quot;#ffffff&quot;&gt;Editar/Atualizar &lt;br&gt;Nome do Projeto&lt;/font&gt;" style="ellipse;whiteSpace=wrap;html=1;fillColor=#A39000;strokeColor=#330000;fontColor=#000000;" vertex="1" parent="1">
          <mxGeometry x="70" y="330" width="140" height="55" as="geometry" />
        </mxCell>
        <mxCell id="cDw2JgXCBmMAKWbcmkBe-31" value="&lt;font color=&quot;#ffffff&quot;&gt;Remover Projeto&lt;/font&gt;" style="ellipse;whiteSpace=wrap;html=1;fillColor=#A30F0F;strokeColor=#330000;fontColor=#000000;" vertex="1" parent="1">
          <mxGeometry x="70" y="230" width="140" height="55" as="geometry" />
        </mxCell>
        <mxCell id="cDw2JgXCBmMAKWbcmkBe-35" style="edgeStyle=none;curved=1;rounded=0;orthogonalLoop=1;jettySize=auto;html=1;fontSize=12;startSize=8;endSize=8;dashed=1;endArrow=none;endFill=0;entryX=1;entryY=1;entryDx=0;entryDy=0;startArrow=classic;startFill=1;exitX=0;exitY=0;exitDx=0;exitDy=0;" edge="1" parent="1" source="A_78D8oT7askTk93ZynL-10" target="cDw2JgXCBmMAKWbcmkBe-31">
          <mxGeometry relative="1" as="geometry">
            <mxPoint x="222.5" y="285" as="sourcePoint" />
            <mxPoint x="147.5" y="307" as="targetPoint" />
          </mxGeometry>
        </mxCell>
        <mxCell id="cDw2JgXCBmMAKWbcmkBe-50" style="edgeStyle=none;curved=1;rounded=0;orthogonalLoop=1;jettySize=auto;html=1;exitX=0;exitY=1;exitDx=0;exitDy=0;entryX=1;entryY=0;entryDx=0;entryDy=0;fontSize=12;startSize=8;endSize=8;dashed=1;" edge="1" parent="1" source="cDw2JgXCBmMAKWbcmkBe-44" target="A_78D8oT7askTk93ZynL-18">
          <mxGeometry relative="1" as="geometry" />
        </mxCell>
        <mxCell id="cDw2JgXCBmMAKWbcmkBe-44" value="&lt;font color=&quot;#ffffff&quot;&gt;Arquivar Task&lt;/font&gt;" style="ellipse;whiteSpace=wrap;html=1;fillColor=#994C00;strokeColor=#330000;fontColor=#000000;" vertex="1" parent="1">
          <mxGeometry x="580" y="220" width="140" height="55" as="geometry" />
        </mxCell>
        <mxCell id="cDw2JgXCBmMAKWbcmkBe-49" value="&lt;font color=&quot;#ffffff&quot;&gt;Editar/Atualizar &lt;br&gt;Nome da Coluna&lt;/font&gt;" style="ellipse;whiteSpace=wrap;html=1;fillColor=#A39000;strokeColor=#330000;fontColor=#000000;" vertex="1" parent="1">
          <mxGeometry x="580" y="360" width="140" height="55" as="geometry" />
        </mxCell>
        <mxCell id="cDw2JgXCBmMAKWbcmkBe-51" value="&lt;b&gt;ANOTAÇÕES ONE NOTE&lt;/b&gt;&lt;br&gt;Fieldflow&amp;nbsp; (&lt;a href=&quot;https://onedrive.live.com/view.aspx?resid=6A7501A8E6437028%2117333&amp;amp;id=documents&amp;amp;wd=target%28Fieldflow.one%7CA31492B7-31E2-40BC-A1BD-F537D0273D36%2F%29&quot;&gt;Exibição da Web&lt;/a&gt;)&lt;br&gt;&lt;div&gt;&lt;br/&gt;&lt;/div&gt;" style="text;whiteSpace=wrap;html=1;" vertex="1" parent="1">
          <mxGeometry x="450" y="792.5" width="190" height="40" as="geometry" />
        </mxCell>
      </root>
    </mxGraphModel>
  </diagram>
</mxfile>
